:SAMPLES-PER-SECOND 30
:FULLY-SPECIFIED
:DEGREES
553
root  3.51007 40.3761 1.48428 -120.027 -88.291 118.12
RightUpLeg  2.06993 -11.8876 -7.51008
RightLeg  10.661 -1.89629 4.23453
RightFoot  -14.6806 0.211107 10.6618
RightToes  0.000482159 0.542163 -0.142577
Spine  10.4541 -0.631912 0.882371
Spine1  -3.31556 -0.422617 0.035312
HEad  -3.34637 2.25453 -4.15414
LeftShoulder1  1.55987 -4.287 -12.9526
LeftArm  -26.0033 17.7622 -1.18869
LeftForeArm  8.41232 -12.909 0.167711
LeftHand  -0.25398 0.0180481 5.50724
RightShoulder  0.558064 0.574396 5.97368
RightArm  -21.5679 -6.63643 1.26838
RightForeArm  -21.3286 5.85039 4.33783
RightHand  -3.23519 9.5142 -25.2479
LeftUpLeg  0.356348 16.8313 -0.166771
LeftLeg  18.0866 2.98819 0.698185
LeftFoot  -11.2587 0.0720373 -3.14467
LeftToes  1.06248e-005 4.65855e-005 -8.18498e-006
554
root  3.8563 40.4686 1.40224 -116.543 -88.7676 114.505
RightUpLeg  2.58993 -11.6877 -6.90624
RightLeg  8.95375 -2.20701 4.26379
RightFoot  -14.2096 0.195511 11.6403
RightToes  0.000482159 0.542163 -0.142577
Spine  9.73274 -0.512062 -0.0292273
Spine1  -3.57876 -0.600496 0.660064
HEad  -2.75169 2.52691 -3.39255
LeftShoulder1  1.4886 -4.28407 -11.9544
LeftArm  -23.9504 15.9322 -0.0540456
LeftForeArm  7.74352 -11.9029 -0.287504
LeftHand  -0.25398 0.0180481 5.50724
RightShoulder  0.485675 0.291097 4.97321
RightArm  -20.6052 -6.06984 0.272451
RightForeArm  -19.8997 6.44038 4.6642
RightHand  -3.44088 10.1689 -25.7006
LeftUpLeg  4.47522 10.3916 -8.83997e-005
LeftLeg  10.4278 11.3595 -1.12116
LeftFoot  -12.4381 0.0636137 -0.808572
LeftToes  1.06248e-005 4.65855e-005 -8.18498e-006
555
root  4.19432 40.5647 1.31006 -85.693 -88.9436 83.5115
RightUpLeg  2.72076 -11.3852 -6.3315
RightLeg  7.96058 -3.23601 3.9594
RightFoot  -13.5222 0.129048 11.5419
RightToes  0.000482159 0.542163 -0.142577
Spine  9.093 -0.491273 -1.98471
Spine1  -3.49594 -1.05625 2.55496
HEad  -2.73166 2.75156 -2.84988
LeftShoulder1  1.54696 -4.61205 -11.8944
LeftArm  -20.1307 13.9781 0.667981
LeftForeArm  7.22617 -9.41525 -1.15467
LeftHand  -0.25398 0.0180481 5.50724
RightShoulder  0.433856 -0.0858515 4.86128
RightArm  -20.8356 -5.45648 0.110828
RightForeArm  -20.1066 6.91975 4.75309
RightHand  -3.89638 11.3448 -26.9812
LeftUpLeg  6.51461 3.78003 -0.614895
LeftLeg  4.84382 18.1989 -2.82665
LeftFoot  -11.4037 0.0688061 0.613768
LeftToes  1.06248e-005 4.65855e-005 -8.18498e-006
556
root  4.55474 40.6688 1.17735 -45.1187 -87.9832 43.004
RightUpLeg  2.23091 -11.0468 -6.04748
RightLeg  7.65224 -5.0703 3.5023
RightFoot  -12.7629 0.0409621 10.2528
RightToes  0.000482159 0.542163 -0.142577
Spine  8.72678 -0.73582 -5.13726
Spine1  -3.55405 -1.89507 5.28302
HEad  -2.79485 3.07013 -2.36435
LeftShoulder1  1.67779 -5.08134 -12.4345
LeftArm  -17.6677 12.7506 0.683325
LeftForeArm  6.80081 -6.86221 -1.84031
LeftHand  -0.25398 0.0180481 5.50724
RightShoulder  0.424686 -0.327264 5.61249
RightArm  -21.4931 -5.13231 1.22704
RightForeArm  -22.0641 7.17239 4.79084
RightHand  -4.41782 12.5108 -28.5453
LeftUpLeg  6.69154 4.03011 -0.76013
LeftLeg  2.61564 16.5603 -3.43946
LeftFoot  -9.16647 0.042959 0.696841
LeftToes  1.06248e-005 4.65855e-005 -8.18498e-006
557
root  4.95826 40.7191 1.05859 -32.6302 -86.6227 30.6647
RightUpLeg  1.36923 -10.9 -5.88108
RightLeg  7.87708 -6.85022 3.20802
RightFoot  -12.2622 -0.0124908 8.86483
RightToes  0.000482159 0.542163 -0.142577
Spine  8.96687 -1.17119 -7.41891
Spine1  -4.06342 -2.67706 7.02507
HEad  -2.82061 3.13889 -1.76021
LeftShoulder1  1.79292 -5.43095 -13.0167
LeftArm  -17.1859 11.9363 -0.213638
LeftForeArm  5.93626 -4.80233 -1.90002
LeftHand  -0.25398 0.0180481 5.50724
RightShoulder  0.489553 -0.163013 7.03982
RightArm  -21.3056 -5.6947 3.08068
RightForeArm  -23.537 6.87319 4.86771
RightHand  -4.30411 12.1398 -28.3706
LeftUpLeg  5.60089 4.0504 -0.706707
LeftLeg  2.95629 14.9068 -3.72611
LeftFoot  -7.92398 0.0320619 0.511852
LeftToes  1.06248e-005 4.65855e-005 -8.18498e-006
558
root  5.37846 40.7003 1.02286 -26.0776 -86.01 23.8951
RightUpLeg  0.869318 -10.8462 -5.71283
RightLeg  8.15597 -7.78548 3.25032
RightFoot  -12.0633 -0.0285975 8.48844
RightToes  0.000482159 0.542163 -0.142577
Spine  9.7663 -1.3643 -7.44333
Spine1  -4.48535 -2.8424 6.82363
HEad  -3.44161 2.65251 -1.30669
LeftShoulder1  1.88737 -5.65572 -13.6088
LeftArm  -17.4232 10.8974 -1.66675
LeftForeArm  5.38007 -3.01426 -1.7752
LeftHand  -0.25398 0.0180481 5.50724
RightShoulder  0.626537 0.333903 8.91991
RightArm  -20.0523 -6.88023 4.3968
RightForeArm  -22.4172 5.75632 4.89121
RightHand  -3.38633 9.89312 -25.7041
LeftUpLeg  4.35989 4.04196 -0.595064
LeftLeg  4.46625 14.2828 -3.37108
LeftFoot  -8.02331 0.0205573 0.966872
LeftToes  1.06248e-005 4.65855e-005 -8.18498e-006
559
root  5.76849 40.6692 1.07644 -24.3332 -86.5556 21.3153
RightUpLeg  1.21555 -10.6836 -5.62452
RightLeg  7.9957 -7.70174 3.50888
RightFoot  -11.8354 -0.0418023 9.0034
RightToes  0.000482159 0.542163 -0.142577
Spine  10.7749 -1.05825 -6.10311
Spine1  -4.10046 -2.35989 5.68671
HEad  -5.12434 2.07671 -1.51569
LeftShoulder1  2.00311 -5.83306 -14.5392
LeftArm  -17.2617 9.88816 -3.04843
LeftForeArm  5.58558 -1.36404 -1.80272
LeftHand  -0.25398 0.0180481 5.50724
RightShoulder  0.791129 0.875466 10.8726
RightArm  -18.7578 -7.66239 4.73212
RightForeArm  -19.5716 4.17883 4.78672
RightHand  -2.57536 7.84729 -22.7623
LeftUpLeg  3.87734 4.29669 -0.45306
LeftLeg  5.99792 14.5893 -2.72745
LeftFoot  -8.30895 0.00698726 1.61847
LeftToes  1.06248e-005 4.65855e-005 -8.18498e-006
560
root  6.09933 40.6564 1.17337 -33.6988 -87.9208 29.571
RightUpLeg  1.90752 -10.433 -5.61418
RightLeg  7.63857 -6.86584 3.69126
RightFoot  -11.4288 -0.0705294 9.5688
RightToes  0.000482159 0.542163 -0.142577
Spine  11.629 -0.509625 -4.88445
Spine1  -3.05824 -1.69908 4.90414
HEad  -7.28183 2.21109 -2.4308
LeftShoulder1  2.10445 -5.84341 -15.6992
LeftArm  -16.9916 9.71278 -4.07699
LeftForeArm  5.92198 -0.0954657 -1.78961
LeftHand  -0.25398 0.0180481 5.50724
RightShoulder  0.940447 1.33059 12.4129
RightArm  -18.391 -7.53956 4.76732
RightForeArm  -17.6718 2.95335 4.60766
RightHand  -2.38473 7.43479 -21.7626
LeftUpLeg  4.15763 4.77521 -0.335205
LeftLeg  7.01227 15.4372 -2.2359
LeftFoot  -8.30888 0.000361429 1.87419
LeftToes  1.06248e-005 4.65855e-005 -8.18498e-006
